<mxfile host="app.diagrams.net" modified="2023-07-26T10:35:52.600Z" agent="Mozilla/5.0 (Macintosh; Intel Mac OS X 10_15_7) AppleWebKit/605.1.15 (KHTML, like Gecko) Version/16.5.2 Safari/605.1.15" version="21.6.2" etag="JWOOSeE9cydQI3rc6ugI" type="github">
  <diagram name="Page-1" id="O5w14shfSuMgT2zOTzAq">
    <mxGraphModel>
      <root>
        <mxCell id="0" />
        <mxCell id="1" parent="0" />
      </root>
    </mxGraphModel>
  </diagram>
</mxfile>
